<svg width="32" height="32" viewBox="0 0 32 32" fill="none" xmlns="http://www.w3.org/2000/svg">
<path d="M23.0886 11.1127C23.0876 11.3779 23.1963 11.6186 23.3691 11.7915C23.5429 11.9653 23.7828 12.073 24.048 12.0721C24.5783 12.0721 25.0083 11.6421 25.0074 11.1127L25.0065 9.10063L26.966 9.09973C27.4964 9.09973 27.9254 8.67071 27.9254 8.14032C27.9254 7.60994 27.4955 7.18002 26.9651 7.18002L25.0046 7.18002L25.0028 5.16165C25.0019 4.63036 24.5729 4.20134 24.0434 4.20225C23.513 4.20225 23.0831 4.63217 23.084 5.16165L23.0858 7.18002L21.1363 7.18183C20.6068 7.18092 20.1769 7.61084 20.1769 8.14123C20.1769 8.67162 20.6059 9.10063 21.1363 9.10063L23.0858 9.10063L23.0886 11.1127Z" fill="#FF9B7F"/>
<path d="M3.07251 16.0014C3.07251 22.8827 8.67123 28.4814 15.5525 28.4814C22.4338 28.4814 28.0325 22.8827 28.0325 16.0014C28.0325 15.611 28.0172 15.2257 27.9749 14.8443C27.916 14.3169 27.4399 13.9483 26.9151 13.9969C26.3877 14.0545 26.0088 14.5307 26.0677 15.0568C26.1023 15.3678 26.1125 15.684 26.1125 16.0014C26.1125 19.5172 24.3854 22.6372 21.7353 24.5576C21.086 22.693 19.1081 21.13 15.564 21.13C12.018 21.13 10.0392 22.7005 9.39069 24.5727C6.72864 22.6536 4.99251 19.5264 4.99251 16.0014C4.99251 9.74222 10.4389 4.73614 16.8671 5.52334C17.3944 5.57966 17.8732 5.21486 17.9384 4.69006C18.0037 4.16398 17.63 3.68398 17.1052 3.6187C9.53267 2.67662 3.07251 8.6043 3.07251 16.0014Z" fill="#181818"/>
<path d="M15.5633 20.0797C17.7956 20.0797 19.6119 18.2634 19.6119 16.0311C19.6119 13.7975 17.7956 11.9825 15.5633 11.9825C13.3311 11.9825 11.5147 13.7975 11.5147 16.0311C11.5147 18.2634 13.3311 20.0797 15.5633 20.0797Z" fill="#181818"/>
</svg>
